<mxfile host="65bd71144e">
    <diagram id="OqCNemMIUqIuWi3cAAaL" name="PÃ¡gina-1">
        <mxGraphModel dx="2484" dy="575" grid="1" gridSize="10" guides="1" tooltips="1" connect="1" arrows="1" fold="1" page="1" pageScale="1" pageWidth="827" pageHeight="1169" math="0" shadow="0">
            <root>
                <mxCell id="0"/>
                <mxCell id="1" parent="0"/>
                <mxCell id="2" value="Instrument" style="swimlane;fontStyle=3;align=center;verticalAlign=top;childLayout=stackLayout;horizontal=1;startSize=26;horizontalStack=0;resizeParent=1;resizeParentMax=0;resizeLast=0;collapsible=1;marginBottom=0;" vertex="1" parent="1">
                    <mxGeometry x="330" y="220" width="320" height="150" as="geometry"/>
                </mxCell>
                <mxCell id="3" value="# material: String&#10;# notes: ArrayList&lt;String&gt;" style="text;strokeColor=none;fillColor=none;align=left;verticalAlign=top;spacingLeft=4;spacingRight=4;overflow=hidden;rotatable=0;points=[[0,0.5],[1,0.5]];portConstraint=eastwest;" vertex="1" parent="2">
                    <mxGeometry y="26" width="320" height="54" as="geometry"/>
                </mxCell>
                <mxCell id="4" value="" style="line;strokeWidth=1;fillColor=none;align=left;verticalAlign=middle;spacingTop=-1;spacingLeft=3;spacingRight=3;rotatable=0;labelPosition=right;points=[];portConstraint=eastwest;strokeColor=inherit;" vertex="1" parent="2">
                    <mxGeometry y="80" width="320" height="8" as="geometry"/>
                </mxCell>
                <mxCell id="5" value="&lt;span style=&quot;font-style: normal;&quot;&gt;+ Instrument(material String, notes ArrayList&amp;lt;String&amp;gt;)&lt;/span&gt;&lt;br&gt;+ play(): String" style="text;strokeColor=none;fillColor=none;align=left;verticalAlign=top;spacingLeft=4;spacingRight=4;overflow=hidden;rotatable=0;points=[[0,0.5],[1,0.5]];portConstraint=eastwest;fontStyle=2;html=1;" vertex="1" parent="2">
                    <mxGeometry y="88" width="320" height="62" as="geometry"/>
                </mxCell>
                <mxCell id="6" value="&lt;i&gt;String_Instrument&lt;/i&gt;" style="swimlane;fontStyle=1;align=center;verticalAlign=top;childLayout=stackLayout;horizontal=1;startSize=26;horizontalStack=0;resizeParent=1;resizeParentMax=0;resizeLast=0;collapsible=1;marginBottom=0;html=1;" vertex="1" parent="1">
                    <mxGeometry x="-600" y="470" width="490" height="120" as="geometry"/>
                </mxCell>
                <mxCell id="7" value="# number_of_strings: int" style="text;strokeColor=none;fillColor=none;align=left;verticalAlign=top;spacingLeft=4;spacingRight=4;overflow=hidden;rotatable=0;points=[[0,0.5],[1,0.5]];portConstraint=eastwest;html=1;" vertex="1" parent="6">
                    <mxGeometry y="26" width="490" height="26" as="geometry"/>
                </mxCell>
                <mxCell id="8" value="" style="line;strokeWidth=1;fillColor=none;align=left;verticalAlign=middle;spacingTop=-1;spacingLeft=3;spacingRight=3;rotatable=0;labelPosition=right;points=[];portConstraint=eastwest;strokeColor=inherit;html=1;" vertex="1" parent="6">
                    <mxGeometry y="52" width="490" height="8" as="geometry"/>
                </mxCell>
                <mxCell id="9" value="+ String_Instrument(material String, notes ArrayList&amp;lt;String&amp;gt;, number_of_string int)&lt;br&gt;&lt;i&gt;+ tune()&lt;/i&gt;&lt;br&gt;+ &lt;i&gt;play()&lt;/i&gt;" style="text;strokeColor=none;fillColor=none;align=left;verticalAlign=top;spacingLeft=4;spacingRight=4;overflow=hidden;rotatable=0;points=[[0,0.5],[1,0.5]];portConstraint=eastwest;html=1;" vertex="1" parent="6">
                    <mxGeometry y="60" width="490" height="60" as="geometry"/>
                </mxCell>
                <mxCell id="10" value="&lt;i&gt;Wind_Instrument&lt;/i&gt;" style="swimlane;fontStyle=1;align=center;verticalAlign=top;childLayout=stackLayout;horizontal=1;startSize=26;horizontalStack=0;resizeParent=1;resizeParentMax=0;resizeLast=0;collapsible=1;marginBottom=0;html=1;" vertex="1" parent="1">
                    <mxGeometry x="210" y="540" width="560" height="140" as="geometry"/>
                </mxCell>
                <mxCell id="11" value="# number_of_holes: int" style="text;strokeColor=none;fillColor=none;align=left;verticalAlign=top;spacingLeft=4;spacingRight=4;overflow=hidden;rotatable=0;points=[[0,0.5],[1,0.5]];portConstraint=eastwest;html=1;" vertex="1" parent="10">
                    <mxGeometry y="26" width="560" height="26" as="geometry"/>
                </mxCell>
                <mxCell id="12" value="" style="line;strokeWidth=1;fillColor=none;align=left;verticalAlign=middle;spacingTop=-1;spacingLeft=3;spacingRight=3;rotatable=0;labelPosition=right;points=[];portConstraint=eastwest;strokeColor=inherit;html=1;" vertex="1" parent="10">
                    <mxGeometry y="52" width="560" height="8" as="geometry"/>
                </mxCell>
                <mxCell id="13" value="+ String_Instrument(material String, notes ArrayList&amp;lt;String&amp;gt;, number_of_holes int)&lt;br&gt;&lt;i&gt;+ tune()&lt;/i&gt;&lt;br&gt;+&amp;nbsp;&lt;i&gt;play()&lt;/i&gt;" style="text;strokeColor=none;fillColor=none;align=left;verticalAlign=top;spacingLeft=4;spacingRight=4;overflow=hidden;rotatable=0;points=[[0,0.5],[1,0.5]];portConstraint=eastwest;html=1;" vertex="1" parent="10">
                    <mxGeometry y="60" width="560" height="80" as="geometry"/>
                </mxCell>
                <mxCell id="14" value="&lt;i&gt;Percussion_Instrument&lt;/i&gt;" style="swimlane;fontStyle=1;align=center;verticalAlign=top;childLayout=stackLayout;horizontal=1;startSize=26;horizontalStack=0;resizeParent=1;resizeParentMax=0;resizeLast=0;collapsible=1;marginBottom=0;html=1;" vertex="1" parent="1">
                    <mxGeometry x="870" y="540" width="410" height="150" as="geometry"/>
                </mxCell>
                <mxCell id="15" value="# range: int" style="text;strokeColor=none;fillColor=none;align=left;verticalAlign=top;spacingLeft=4;spacingRight=4;overflow=hidden;rotatable=0;points=[[0,0.5],[1,0.5]];portConstraint=eastwest;html=1;" vertex="1" parent="14">
                    <mxGeometry y="26" width="410" height="26" as="geometry"/>
                </mxCell>
                <mxCell id="16" value="" style="line;strokeWidth=1;fillColor=none;align=left;verticalAlign=middle;spacingTop=-1;spacingLeft=3;spacingRight=3;rotatable=0;labelPosition=right;points=[];portConstraint=eastwest;strokeColor=inherit;html=1;" vertex="1" parent="14">
                    <mxGeometry y="52" width="410" height="8" as="geometry"/>
                </mxCell>
                <mxCell id="17" value="+ String_Instrument(material String, notes ArrayList&amp;lt;String&amp;gt;, range int)&lt;br&gt;&lt;i&gt;+ tune()&lt;/i&gt;&lt;br&gt;+&amp;nbsp;&lt;i&gt;play()&lt;/i&gt;" style="text;strokeColor=none;fillColor=none;align=left;verticalAlign=top;spacingLeft=4;spacingRight=4;overflow=hidden;rotatable=0;points=[[0,0.5],[1,0.5]];portConstraint=eastwest;html=1;" vertex="1" parent="14">
                    <mxGeometry y="60" width="410" height="90" as="geometry"/>
                </mxCell>
                <mxCell id="18" value="Extends" style="endArrow=block;endSize=16;endFill=0;html=1;exitX=0.453;exitY=0.013;exitDx=0;exitDy=0;exitPerimeter=0;entryX=0.28;entryY=1.049;entryDx=0;entryDy=0;entryPerimeter=0;" edge="1" parent="1" source="6" target="5">
                    <mxGeometry width="160" relative="1" as="geometry">
                        <mxPoint x="-80" y="560" as="sourcePoint"/>
                        <mxPoint x="80" y="560" as="targetPoint"/>
                    </mxGeometry>
                </mxCell>
                <mxCell id="19" value="Extends" style="endArrow=block;endSize=16;endFill=0;html=1;exitX=0.5;exitY=0;exitDx=0;exitDy=0;entryX=0.492;entryY=0.989;entryDx=0;entryDy=0;entryPerimeter=0;" edge="1" parent="1" source="10" target="5">
                    <mxGeometry width="160" relative="1" as="geometry">
                        <mxPoint x="440" y="440" as="sourcePoint"/>
                        <mxPoint x="600" y="440" as="targetPoint"/>
                    </mxGeometry>
                </mxCell>
                <mxCell id="20" value="Extends" style="endArrow=block;endSize=16;endFill=0;html=1;exitX=0.5;exitY=0;exitDx=0;exitDy=0;entryX=0.66;entryY=1.004;entryDx=0;entryDy=0;entryPerimeter=0;" edge="1" parent="1" source="14" target="5">
                    <mxGeometry width="160" relative="1" as="geometry">
                        <mxPoint x="800" y="440" as="sourcePoint"/>
                        <mxPoint x="960" y="440" as="targetPoint"/>
                    </mxGeometry>
                </mxCell>
                <mxCell id="21" value="Cello" style="swimlane;fontStyle=1;align=center;verticalAlign=top;childLayout=stackLayout;horizontal=1;startSize=26;horizontalStack=0;resizeParent=1;resizeParentMax=0;resizeLast=0;collapsible=1;marginBottom=0;html=1;" vertex="1" parent="1">
                    <mxGeometry x="-827" y="750" width="340" height="94" as="geometry"/>
                </mxCell>
                <mxCell id="23" value="" style="line;strokeWidth=1;fillColor=none;align=left;verticalAlign=middle;spacingTop=-1;spacingLeft=3;spacingRight=3;rotatable=0;labelPosition=right;points=[];portConstraint=eastwest;strokeColor=inherit;html=1;" vertex="1" parent="21">
                    <mxGeometry y="26" width="340" height="8" as="geometry"/>
                </mxCell>
                <mxCell id="24" value="+ String_Instrument(material String, notes ArrayList&amp;lt;String&amp;gt;)&lt;br&gt;+ tune()&lt;br&gt;+ play()" style="text;strokeColor=none;fillColor=none;align=left;verticalAlign=top;spacingLeft=4;spacingRight=4;overflow=hidden;rotatable=0;points=[[0,0.5],[1,0.5]];portConstraint=eastwest;html=1;" vertex="1" parent="21">
                    <mxGeometry y="34" width="340" height="60" as="geometry"/>
                </mxCell>
                <mxCell id="25" value="Violin&lt;span style=&quot;color: rgba(0, 0, 0, 0); font-family: monospace; font-size: 0px; font-weight: 400; text-align: start;&quot;&gt;%3CmxGraphModel%3E%3Croot%3E%3CmxCell%20id%3D%220%22%2F%3E%3CmxCell%20id%3D%221%22%20parent%3D%220%22%2F%3E%3CmxCell%20id%3D%222%22%20value%3D%22Cello%22%20style%3D%22swimlane%3BfontStyle%3D1%3Balign%3Dcenter%3BverticalAlign%3Dtop%3BchildLayout%3DstackLayout%3Bhorizontal%3D1%3BstartSize%3D26%3BhorizontalStack%3D0%3BresizeParent%3D1%3BresizeParentMax%3D0%3BresizeLast%3D0%3Bcollapsible%3D1%3BmarginBottom%3D0%3Bhtml%3D1%3B%22%20vertex%3D%221%22%20parent%3D%221%22%3E%3CmxGeometry%20x%3D%22-730%22%20y%3D%22740%22%20width%3D%22490%22%20height%3D%22120%22%20as%3D%22geometry%22%2F%3E%3C%2FmxCell%3E%3CmxCell%20id%3D%223%22%20value%3D%22%23%20number_of_strings%3A%20int%22%20style%3D%22text%3BstrokeColor%3Dnone%3BfillColor%3Dnone%3Balign%3Dleft%3BverticalAlign%3Dtop%3BspacingLeft%3D4%3BspacingRight%3D4%3Boverflow%3Dhidden%3Brotatable%3D0%3Bpoints%3D%5B%5B0%2C0.5%5D%2C%5B1%2C0.5%5D%5D%3BportConstraint%3Deastwest%3Bhtml%3D1%3B%22%20vertex%3D%221%22%20parent%3D%222%22%3E%3CmxGeometry%20y%3D%2226%22%20width%3D%22490%22%20height%3D%2226%22%20as%3D%22geometry%22%2F%3E%3C%2FmxCell%3E%3CmxCell%20id%3D%224%22%20value%3D%22%22%20style%3D%22line%3BstrokeWidth%3D1%3BfillColor%3Dnone%3Balign%3Dleft%3BverticalAlign%3Dmiddle%3BspacingTop%3D-1%3BspacingLeft%3D3%3BspacingRight%3D3%3Brotatable%3D0%3BlabelPosition%3Dright%3Bpoints%3D%5B%5D%3BportConstraint%3Deastwest%3BstrokeColor%3Dinherit%3Bhtml%3D1%3B%22%20vertex%3D%221%22%20parent%3D%222%22%3E%3CmxGeometry%20y%3D%2252%22%20width%3D%22490%22%20height%3D%228%22%20as%3D%22geometry%22%2F%3E%3C%2FmxCell%3E%3CmxCell%20id%3D%225%22%20value%3D%22%2B%20String_Instrument(material%20String%2C%20notes%20ArrayList%26amp%3Blt%3BString%26amp%3Bgt%3B%2C%20number_of_string%20int)%26lt%3Bbr%26gt%3B%2B%20tune()%26lt%3Bbr%26gt%3B%2B%20play()%22%20style%3D%22text%3BstrokeColor%3Dnone%3BfillColor%3Dnone%3Balign%3Dleft%3BverticalAlign%3Dtop%3BspacingLeft%3D4%3BspacingRight%3D4%3Boverflow%3Dhidden%3Brotatable%3D0%3Bpoints%3D%5B%5B0%2C0.5%5D%2C%5B1%2C0.5%5D%5D%3BportConstraint%3Deastwest%3Bhtml%3D1%3B%22%20vertex%3D%221%22%20parent%3D%222%22%3E%3CmxGeometry%20y%3D%2260%22%20width%3D%22490%22%20height%3D%2260%22%20as%3D%22geometry%22%2F%3E%3C%2FmxCell%3E%3C%2Froot%3E%3C%2FmxGraphModel%3E&lt;/span&gt;" style="swimlane;fontStyle=1;align=center;verticalAlign=top;childLayout=stackLayout;horizontal=1;startSize=26;horizontalStack=0;resizeParent=1;resizeParentMax=0;resizeLast=0;collapsible=1;marginBottom=0;html=1;" vertex="1" parent="1">
                    <mxGeometry x="-390" y="736" width="340" height="108" as="geometry"/>
                </mxCell>
                <mxCell id="26" value="&lt;br&gt;" style="text;strokeColor=none;fillColor=none;align=left;verticalAlign=top;spacingLeft=4;spacingRight=4;overflow=hidden;rotatable=0;points=[[0,0.5],[1,0.5]];portConstraint=eastwest;html=1;" vertex="1" parent="25">
                    <mxGeometry y="26" width="340" height="14" as="geometry"/>
                </mxCell>
                <mxCell id="27" value="" style="line;strokeWidth=1;fillColor=none;align=left;verticalAlign=middle;spacingTop=-1;spacingLeft=3;spacingRight=3;rotatable=0;labelPosition=right;points=[];portConstraint=eastwest;strokeColor=inherit;html=1;" vertex="1" parent="25">
                    <mxGeometry y="40" width="340" height="8" as="geometry"/>
                </mxCell>
                <mxCell id="28" value="+ String_Instrument(material String, notes ArrayList&amp;lt;String&amp;gt;)&lt;br&gt;+ tune()&lt;br&gt;+ play()" style="text;strokeColor=none;fillColor=none;align=left;verticalAlign=top;spacingLeft=4;spacingRight=4;overflow=hidden;rotatable=0;points=[[0,0.5],[1,0.5]];portConstraint=eastwest;html=1;" vertex="1" parent="25">
                    <mxGeometry y="48" width="340" height="60" as="geometry"/>
                </mxCell>
                <mxCell id="29" value="Guitar" style="swimlane;fontStyle=1;align=center;verticalAlign=top;childLayout=stackLayout;horizontal=1;startSize=26;horizontalStack=0;resizeParent=1;resizeParentMax=0;resizeLast=0;collapsible=1;marginBottom=0;html=1;" vertex="1" parent="1">
                    <mxGeometry x="-667" y="880" width="330" height="94" as="geometry"/>
                </mxCell>
                <mxCell id="31" value="" style="line;strokeWidth=1;fillColor=none;align=left;verticalAlign=middle;spacingTop=-1;spacingLeft=3;spacingRight=3;rotatable=0;labelPosition=right;points=[];portConstraint=eastwest;strokeColor=inherit;html=1;" vertex="1" parent="29">
                    <mxGeometry y="26" width="330" height="8" as="geometry"/>
                </mxCell>
                <mxCell id="32" value="+ String_Instrument(material String, notes ArrayList&amp;lt;String&amp;gt;)&lt;br&gt;+ tune()&lt;br&gt;+ play()" style="text;strokeColor=none;fillColor=none;align=left;verticalAlign=top;spacingLeft=4;spacingRight=4;overflow=hidden;rotatable=0;points=[[0,0.5],[1,0.5]];portConstraint=eastwest;html=1;" vertex="1" parent="29">
                    <mxGeometry y="34" width="330" height="60" as="geometry"/>
                </mxCell>
                <mxCell id="33" value="Banjo" style="swimlane;fontStyle=1;align=center;verticalAlign=top;childLayout=stackLayout;horizontal=1;startSize=26;horizontalStack=0;resizeParent=1;resizeParentMax=0;resizeLast=0;collapsible=1;marginBottom=0;html=1;" vertex="1" parent="1">
                    <mxGeometry x="-297" y="890" width="490" height="120" as="geometry"/>
                </mxCell>
                <mxCell id="34" value="# number_of_strings: int" style="text;strokeColor=none;fillColor=none;align=left;verticalAlign=top;spacingLeft=4;spacingRight=4;overflow=hidden;rotatable=0;points=[[0,0.5],[1,0.5]];portConstraint=eastwest;html=1;" vertex="1" parent="33">
                    <mxGeometry y="26" width="490" height="26" as="geometry"/>
                </mxCell>
                <mxCell id="35" value="" style="line;strokeWidth=1;fillColor=none;align=left;verticalAlign=middle;spacingTop=-1;spacingLeft=3;spacingRight=3;rotatable=0;labelPosition=right;points=[];portConstraint=eastwest;strokeColor=inherit;html=1;" vertex="1" parent="33">
                    <mxGeometry y="52" width="490" height="8" as="geometry"/>
                </mxCell>
                <mxCell id="36" value="+ String_Instrument(material String, notes ArrayList&amp;lt;String&amp;gt;, number_of_string int)&lt;br&gt;+ tune()&lt;br&gt;+ play()" style="text;strokeColor=none;fillColor=none;align=left;verticalAlign=top;spacingLeft=4;spacingRight=4;overflow=hidden;rotatable=0;points=[[0,0.5],[1,0.5]];portConstraint=eastwest;html=1;" vertex="1" parent="33">
                    <mxGeometry y="60" width="490" height="60" as="geometry"/>
                </mxCell>
                <mxCell id="37" value="Extends" style="endArrow=block;endSize=16;endFill=0;html=1;exitX=0.5;exitY=0;exitDx=0;exitDy=0;entryX=0.49;entryY=1.067;entryDx=0;entryDy=0;entryPerimeter=0;" edge="1" parent="1" source="21" target="9">
                    <mxGeometry width="160" relative="1" as="geometry">
                        <mxPoint x="-30" y="690" as="sourcePoint"/>
                        <mxPoint x="130" y="690" as="targetPoint"/>
                    </mxGeometry>
                </mxCell>
                <mxCell id="38" value="Extends" style="endArrow=block;endSize=16;endFill=0;html=1;exitX=0.636;exitY=-0.028;exitDx=0;exitDy=0;exitPerimeter=0;" edge="1" parent="1" source="29" target="9">
                    <mxGeometry width="160" relative="1" as="geometry">
                        <mxPoint x="-30" y="690" as="sourcePoint"/>
                        <mxPoint x="130" y="690" as="targetPoint"/>
                    </mxGeometry>
                </mxCell>
                <mxCell id="39" value="Extends" style="endArrow=block;endSize=16;endFill=0;html=1;entryX=0.607;entryY=1.044;entryDx=0;entryDy=0;entryPerimeter=0;" edge="1" parent="1" source="25" target="9">
                    <mxGeometry width="160" relative="1" as="geometry">
                        <mxPoint x="-30" y="690" as="sourcePoint"/>
                        <mxPoint x="130" y="690" as="targetPoint"/>
                    </mxGeometry>
                </mxCell>
                <mxCell id="40" value="Extends" style="endArrow=block;endSize=16;endFill=0;html=1;exitX=0.879;exitY=0.006;exitDx=0;exitDy=0;exitPerimeter=0;entryX=0.827;entryY=1.044;entryDx=0;entryDy=0;entryPerimeter=0;" edge="1" parent="1" source="33" target="9">
                    <mxGeometry width="160" relative="1" as="geometry">
                        <mxPoint x="-30" y="690" as="sourcePoint"/>
                        <mxPoint x="130" y="690" as="targetPoint"/>
                    </mxGeometry>
                </mxCell>
            </root>
        </mxGraphModel>
    </diagram>
</mxfile>